<svg width="24" height="25" viewBox="0 0 24 25" fill="none" xmlns="http://www.w3.org/2000/svg">
<path fill-rule="evenodd" clip-rule="evenodd" d="M16 4.04248H8C5.23858 4.04248 3 6.28106 3 9.04248V17.0425C3 19.8039 5.23858 22.0425 8 22.0425H16C18.7614 22.0425 21 19.8039 21 17.0425V9.04248C21 6.28106 18.7614 4.04248 16 4.04248ZM19.25 17.0425C19.2445 18.8351 17.7926 20.287 16 20.2925H8C6.20735 20.287 4.75549 18.8351 4.75 17.0425V9.04248C4.75549 7.24983 6.20735 5.79797 8 5.79248H16C17.7926 5.79797 19.2445 7.24983 19.25 9.04248V17.0425ZM16.75 9.29248C17.3023 9.29248 17.75 8.84476 17.75 8.29248C17.75 7.7402 17.3023 7.29248 16.75 7.29248C16.1977 7.29248 15.75 7.7402 15.75 8.29248C15.75 8.84476 16.1977 9.29248 16.75 9.29248ZM12 8.54248C9.51472 8.54248 7.5 10.5572 7.5 13.0425C7.5 15.5278 9.51472 17.5425 12 17.5425C14.4853 17.5425 16.5 15.5278 16.5 13.0425C16.5027 11.8482 16.0294 10.7021 15.1849 9.85756C14.3404 9.01307 13.1943 8.53982 12 8.54248ZM9.25 13.0425C9.25 14.5613 10.4812 15.7925 12 15.7925C13.5188 15.7925 14.75 14.5613 14.75 13.0425C14.75 11.5237 13.5188 10.2925 12 10.2925C10.4812 10.2925 9.25 11.5237 9.25 13.0425Z" fill="black"/>
</svg>
