<svg width="24" height="25" viewBox="0 0 24 25" fill="none" xmlns="http://www.w3.org/2000/svg">
<path fill-rule="evenodd" clip-rule="evenodd" d="M4.5 4.04248C3.67157 4.04248 3 4.71405 3 5.54248V20.5425C3 21.3709 3.67157 22.0425 4.5 22.0425H19.5C20.3284 22.0425 21 21.3709 21 20.5425V5.54248C21 4.71405 20.3284 4.04248 19.5 4.04248H4.5ZM8.52076 8.0452C8.52639 9.00145 7.81061 9.59067 6.96123 9.58645C6.16107 9.58223 5.46357 8.9452 5.46779 8.04661C5.47201 7.20145 6.13998 6.52223 7.00764 6.54192C7.88795 6.56161 8.52639 7.20708 8.52076 8.0452ZM12.2797 10.8042H9.75971H9.7583V19.3641H12.4217V19.1644C12.4217 18.7845 12.4214 18.4045 12.4211 18.0244C12.4203 17.0106 12.4194 15.9957 12.4246 14.9822C12.426 14.7361 12.4372 14.4802 12.5005 14.2453C12.7381 13.3678 13.5271 12.8011 14.4074 12.9404C14.9727 13.0289 15.3467 13.3566 15.5042 13.8896C15.6013 14.2228 15.6449 14.5814 15.6491 14.9288C15.6605 15.9764 15.6589 17.024 15.6573 18.0717C15.6567 18.4415 15.6561 18.8115 15.6561 19.1813V19.3627H18.328V19.1574C18.328 18.7054 18.3278 18.2535 18.3275 17.8016C18.327 16.6721 18.3264 15.5426 18.3294 14.4127C18.3308 13.9022 18.276 13.3988 18.1508 12.9052C17.9638 12.1711 17.5771 11.5636 16.9485 11.1249C16.5027 10.8127 16.0133 10.6116 15.4663 10.5891C15.404 10.5865 15.3412 10.5831 15.2781 10.5797C14.9984 10.5646 14.7141 10.5492 14.4467 10.6031C13.6817 10.7564 13.0096 11.1066 12.5019 11.7239C12.4429 11.7947 12.3852 11.8666 12.2991 11.9739L12.2797 11.9982V10.8042ZM5.68164 19.3669H8.33242V10.8098H5.68164V19.3669Z" fill="black"/>
</svg>
