<svg width="24" height="25" viewBox="0 0 24 25" fill="none" xmlns="http://www.w3.org/2000/svg">
<path d="M21.5914 8.00281C21.4775 7.58021 21.2549 7.19482 20.9457 6.88498C20.6366 6.57514 20.2517 6.35167 19.8294 6.23681C18.2634 5.80681 11.9984 5.79981 11.9984 5.79981C11.9984 5.79981 5.73438 5.79281 4.16738 6.20381C3.7453 6.32396 3.3612 6.55059 3.05194 6.86195C2.74269 7.1733 2.51866 7.55893 2.40138 7.98181C1.98838 9.54781 1.98438 12.7958 1.98438 12.7958C1.98438 12.7958 1.98038 16.0598 2.39038 17.6098C2.62038 18.4668 3.29538 19.1438 4.15338 19.3748C5.73538 19.8048 11.9834 19.8118 11.9834 19.8118C11.9834 19.8118 18.2484 19.8188 19.8144 19.4088C20.2369 19.2942 20.6221 19.0712 20.932 18.762C21.2419 18.4528 21.4658 18.068 21.5814 17.6458C21.9954 16.0808 21.9984 12.8338 21.9984 12.8338C21.9984 12.8338 22.0184 9.56881 21.5914 8.00281ZM9.99438 15.8048L9.99938 9.80481L15.2064 12.8098L9.99438 15.8048Z" fill="black"/>
</svg>
